<?xml version="1.0" encoding="UTF-8" standalone="no"?>
<!-- Created with Inkscape (http://www.inkscape.org/) -->

<svg
   width="210mm"
   height="297mm"
   viewBox="0 0 210 297"
   version="1.1"
   id="svg5"
   inkscape:version="1.1 (c68e22c387, 2021-05-23)"
   sodipodi:docname="CLOUD COMPUTYNG 1.2.svg"
   xmlns:inkscape="http://www.inkscape.org/namespaces/inkscape"
   xmlns:sodipodi="http://sodipodi.sourceforge.net/DTD/sodipodi-0.dtd"
   xmlns="http://www.w3.org/2000/svg"
   xmlns:svg="http://www.w3.org/2000/svg">
  <sodipodi:namedview
     id="namedview7"
     pagecolor="#ffffff"
     bordercolor="#666666"
     borderopacity="1.0"
     inkscape:pageshadow="2"
     inkscape:pageopacity="0.0"
     inkscape:pagecheckerboard="0"
     inkscape:document-units="mm"
     showgrid="false"
     inkscape:zoom="0.73709606"
     inkscape:cx="135.66753"
     inkscape:cy="559.62855"
     inkscape:window-width="1920"
     inkscape:window-height="1017"
     inkscape:window-x="-8"
     inkscape:window-y="-8"
     inkscape:window-maximized="1"
     inkscape:current-layer="layer1" />
  <defs
     id="defs2" />
  <g
     inkscape:label="Capa 1"
     inkscape:groupmode="layer"
     id="layer1">
    <path
       style="fill:none;stroke:#d0cfd0;stroke-width:5;stroke-linecap:butt;stroke-linejoin:miter;stroke-miterlimit:4;stroke-dasharray:none;stroke-opacity:0.817829"
       d="m 51.958068,205.5335 c -20.874203,-3.38077 -21.713388,-37.18858 0,-42.74272 -12.260889,-30.19759 18.638161,-54.12942 46.936008,-32.60037 17.366014,-18.02388 39.492894,0.50157 34.660454,15.21352 30.49547,-8.64583 57.89312,30.55972 37.5488,59.40511 z"
       id="path857"
       sodipodi:nodetypes="cccccc" />
    <path
       style="color:#000000;fill:#d4aa00;stroke-width:2.02613;stroke-linejoin:round;-inkscape-stroke:none;paint-order:stroke fill markers"
       d="m 119.24701,107.43387 c -3.52072,-0.15708 -7.01209,0.4303 -10.16554,1.92243 l 1.92406,4.09457 c 4.76357,-2.254 11.19684,-1.85806 16.70814,0.65401 5.51128,2.51206 9.93418,7.01517 11.15716,12.45412 l 4.4052,-0.99489 c -1.6114,-7.16642 -7.16672,-12.61054 -13.69363,-15.5855 -3.26343,-1.48748 -6.81467,-2.3876 -10.33539,-2.54474 z"
       id="path1747" />
    <path
       style="color:#000000;fill:#d4aa00;stroke-width:2.02613;stroke-linejoin:round;-inkscape-stroke:none;paint-order:stroke fill markers"
       d="m 117.97483,92.581676 c -5.42388,-0.256846 -10.78675,0.697438 -15.58212,3.107585 l 2.1374,4.280869 c 7.91745,-3.979314 18.34844,-3.25561 27.31614,1.08606 8.96767,4.34168 16.29768,12.17447 18.35559,21.8958 l 4.66594,-0.99491 c -2.42472,-11.4541 -10.8763,-20.33758 -20.94734,-25.21346 -5.03553,-2.437932 -10.52176,-3.905078 -15.94561,-4.161944 z"
       id="path1747-3" />
    <path
       style="color:#000000;fill:#d4aa00;stroke-width:2.02613;stroke-linejoin:round;-inkscape-stroke:none;paint-order:stroke fill markers"
       d="m 117.89976,78.878974 c -7.2471,-0.337923 -14.40475,0.918039 -20.793304,4.074737 l 2.41793,4.926962 c 10.869174,-5.37068 25.123274,-4.381426 37.351264,1.438834 12.22801,5.820262 22.23073,16.322633 25.04045,29.371443 l 5.3534,-1.16139 c -3.24446,-15.0678 -14.55776,-26.753947 -28.0431,-33.172671 -6.74263,-3.209362 -14.07954,-5.139992 -21.32664,-5.477915 z"
       id="path1747-3-0" />
  </g>
</svg>
